<svg width="22" height="22" viewBox="0 0 22 22" fill="none" xmlns="http://www.w3.org/2000/svg">
<path d="M7.31666 17.6762C7.31666 17.7667 7.21522 17.8391 7.08732 17.8391C6.94178 17.8526 6.84035 17.7803 6.84035 17.6762C6.84035 17.5858 6.94178 17.5134 7.06968 17.5134C7.20199 17.4998 7.31666 17.5722 7.31666 17.6762ZM5.94506 17.4727C5.91419 17.5631 6.00239 17.6672 6.1347 17.6943C6.24937 17.7395 6.38168 17.6943 6.40814 17.6038C6.4346 17.5134 6.35081 17.4093 6.2185 17.3686C6.10383 17.337 5.97593 17.3822 5.94506 17.4727ZM7.89441 17.3958C7.76651 17.4274 7.6783 17.5134 7.69153 17.6174C7.70476 17.7079 7.81943 17.7667 7.95174 17.735C8.07964 17.7034 8.16784 17.6174 8.15461 17.5269C8.14138 17.441 8.0223 17.3822 7.89441 17.3958ZM10.7964 0.0625C4.67931 0.0625 0 4.82553 0 11.0993C0 16.1157 3.07838 20.4083 7.47543 21.9191C8.03994 22.0231 8.23841 21.6658 8.23841 21.3718C8.23841 21.0913 8.22518 19.5443 8.22518 18.5944C8.22518 18.5944 5.13798 19.2729 4.48967 17.2465C4.48967 17.2465 3.9869 15.9302 3.26361 15.591C3.26361 15.591 2.25365 14.8808 3.33417 14.8944C3.33417 14.8944 4.43233 14.9849 5.03654 16.0614C6.00239 17.8074 7.62097 17.3053 8.25164 17.0068C8.35307 16.283 8.63974 15.781 8.95728 15.4824C6.49194 15.202 4.00454 14.8356 4.00454 10.4842C4.00454 9.24027 4.33972 8.61605 5.04536 7.81995C4.9307 7.52594 4.55582 6.3137 5.16003 4.74864C6.08178 4.45462 8.20312 5.96993 8.20312 5.96993C9.08518 5.71662 10.0334 5.58545 10.9728 5.58545C11.9122 5.58545 12.8604 5.71662 13.7424 5.96993C13.7424 5.96993 15.8638 4.4501 16.7855 4.74864C17.3897 6.31822 17.0149 7.52594 16.9002 7.81995C17.6058 8.62058 18.0381 9.24479 18.0381 10.4842C18.0381 14.8492 15.4404 15.1975 12.9751 15.4824C13.3808 15.8398 13.7248 16.5183 13.7248 17.5812C13.7248 19.1056 13.7116 20.9918 13.7116 21.3627C13.7116 21.6567 13.9144 22.0141 14.4745 21.91C18.8848 20.4083 21.875 16.1157 21.875 11.0993C21.875 4.82553 16.9134 0.0625 10.7964 0.0625ZM4.28679 15.6633C4.22946 15.7086 4.24269 15.8126 4.31767 15.8986C4.38823 15.9709 4.48967 16.0026 4.547 15.9438C4.60433 15.8986 4.5911 15.7945 4.51613 15.7086C4.44556 15.6362 4.34413 15.6045 4.28679 15.6633ZM3.81048 15.297C3.77961 15.3558 3.82371 15.4281 3.91192 15.4734C3.98248 15.5186 4.07069 15.505 4.10156 15.4417C4.13243 15.3829 4.08833 15.3105 4.00013 15.2653C3.91192 15.2382 3.84136 15.2517 3.81048 15.297ZM5.23942 16.9073C5.16885 16.9661 5.19531 17.1018 5.29675 17.1877C5.39819 17.2917 5.52608 17.3053 5.58342 17.2329C5.64075 17.1741 5.61429 17.0384 5.52608 16.9525C5.42906 16.8485 5.29675 16.8349 5.23942 16.9073ZM4.73664 16.2423C4.66608 16.2876 4.66608 16.4052 4.73664 16.5092C4.80721 16.6132 4.92629 16.6585 4.98362 16.6132C5.05418 16.5544 5.05418 16.4368 4.98362 16.3328C4.92187 16.2288 4.80721 16.1835 4.73664 16.2423Z" fill="black"/>
</svg>