<svg width="23" height="23" viewBox="0 0 23 23" fill="none" xmlns="http://www.w3.org/2000/svg">
<path d="M20.0938 0.5625H2.90625C1.6123 0.5625 0.5625 1.6123 0.5625 2.90625V20.0938C0.5625 21.3877 1.6123 22.4375 2.90625 22.4375H20.0938C21.3877 22.4375 22.4375 21.3877 22.4375 20.0938V2.90625C22.4375 1.6123 21.3877 0.5625 20.0938 0.5625ZM14.1025 19.2979C13.6924 19.3711 13.541 19.1172 13.541 18.9072C13.541 18.6436 13.5508 17.2959 13.5508 16.207C13.5508 15.4453 13.2969 14.9619 12.999 14.708C14.8057 14.5078 16.71 14.2588 16.71 11.1387C16.71 10.25 16.3926 9.80566 15.875 9.23438C15.958 9.02441 16.2363 8.16016 15.792 7.03711C15.1133 6.82715 13.5605 7.91113 13.5605 7.91113C12.916 7.73047 12.2178 7.63769 11.5293 7.63769C10.8408 7.63769 10.1426 7.73047 9.49805 7.91113C9.49805 7.91113 7.94531 6.82715 7.2666 7.03711C6.82227 8.15527 7.0957 9.01953 7.18359 9.23438C6.66602 9.80566 6.42188 10.25 6.42188 11.1387C6.42188 14.2441 8.24316 14.5078 10.0498 14.708C9.81543 14.918 9.60547 15.2793 9.53223 15.7969C9.06836 16.0068 7.88184 16.3682 7.17383 15.1182C6.72949 14.3467 5.92871 14.2832 5.92871 14.2832C5.1377 14.2734 5.875 14.7813 5.875 14.7813C6.40234 15.0254 6.77344 15.9629 6.77344 15.9629C7.24707 17.4131 9.5127 16.9248 9.5127 16.9248C9.5127 17.6035 9.52246 18.707 9.52246 18.9072C9.52246 19.1172 9.37598 19.3711 8.96094 19.2979C5.73828 18.2188 3.48242 15.1523 3.48242 11.5684C3.48242 7.08594 6.91016 3.68262 11.3926 3.68262C15.875 3.68262 19.5078 7.08594 19.5078 11.5684C19.5127 15.1523 17.3252 18.2236 14.1025 19.2979ZM9.3125 16.3145C9.21973 16.334 9.13184 16.2949 9.12207 16.2314C9.1123 16.1582 9.17578 16.0947 9.26855 16.0752C9.36133 16.0654 9.44922 16.1045 9.45898 16.168C9.47363 16.2314 9.41016 16.2949 9.3125 16.3145ZM8.84863 16.2705C8.84863 16.334 8.77539 16.3877 8.67773 16.3877C8.57031 16.3975 8.49707 16.3438 8.49707 16.2705C8.49707 16.207 8.57031 16.1533 8.66797 16.1533C8.76074 16.1436 8.84863 16.1973 8.84863 16.2705ZM8.17969 16.2168C8.16016 16.2803 8.0625 16.3096 7.97949 16.2803C7.88672 16.2607 7.82324 16.1875 7.84277 16.124C7.86231 16.0605 7.95996 16.0313 8.04297 16.0508C8.14062 16.0801 8.2041 16.1533 8.17969 16.2168ZM7.5791 15.9531C7.53516 16.0068 7.44238 15.9971 7.36914 15.9238C7.2959 15.8604 7.27637 15.7676 7.3252 15.7236C7.36914 15.6699 7.46191 15.6797 7.53516 15.7529C7.59863 15.8164 7.62305 15.9141 7.5791 15.9531ZM7.13477 15.5088C7.09082 15.5381 7.00781 15.5088 6.9541 15.4355C6.90039 15.3623 6.90039 15.2793 6.9541 15.2451C7.00781 15.2012 7.09082 15.2354 7.13477 15.3086C7.18848 15.3818 7.18848 15.4697 7.13477 15.5088ZM6.81738 15.0352C6.77344 15.0791 6.7002 15.0547 6.64648 15.0059C6.59277 14.9424 6.58301 14.8691 6.62695 14.835C6.6709 14.791 6.74414 14.8154 6.79785 14.8643C6.85156 14.9277 6.86133 15.001 6.81738 15.0352ZM6.49023 14.6738C6.4707 14.7178 6.40723 14.7275 6.35352 14.6934C6.29004 14.6641 6.26074 14.6104 6.28027 14.5664C6.2998 14.5371 6.35352 14.5225 6.41699 14.5469C6.48047 14.5811 6.50977 14.6348 6.49023 14.6738Z" fill="black"/>
</svg>
