<svg width="19" height="15" viewBox="0 0 19 15" fill="none" xmlns="http://www.w3.org/2000/svg">
<path d="M16.7918 12.9688H14.9688V4.99353L9.50008 8.4115L4.03133 4.99353V12.9688H2.20842V2.03129H3.30217L9.50008 5.90499L15.698 2.03129H16.7918M16.7918 0.208374H2.20842C1.1967 0.208374 0.385498 1.01957 0.385498 2.03129V12.9688C0.385498 13.4523 0.577555 13.9159 0.919418 14.2578C1.26128 14.5997 1.72495 14.7917 2.20842 14.7917H16.7918C17.2752 14.7917 17.7389 14.5997 18.0807 14.2578C18.4226 13.9159 18.6147 13.4523 18.6147 12.9688V2.03129C18.6147 1.54782 18.4226 1.08416 18.0807 0.742294C17.7389 0.400431 17.2752 0.208374 16.7918 0.208374Z" fill="black"/>
</svg>
