<svg width="23" height="22" viewBox="0 0 23 22" fill="none" xmlns="http://www.w3.org/2000/svg">
<path d="M20.0312 0.0625H2.84375C1.5498 0.0625 0.5 1.1123 0.5 2.40625V19.5938C0.5 20.8877 1.5498 21.9375 2.84375 21.9375H20.0312C21.3252 21.9375 22.375 20.8877 22.375 19.5938V2.40625C22.375 1.1123 21.3252 0.0625 20.0312 0.0625ZM12.4043 17.123C12.4043 19.252 11.1543 20.2236 9.33301 20.2236C7.6875 20.2236 6.73535 19.374 6.24707 18.3438L7.92188 17.333C8.24414 17.9043 8.53711 18.3877 9.24512 18.3877C9.91895 18.3877 10.3486 18.124 10.3486 17.0938V10.1064H12.4043V17.123ZM17.2676 20.2236C15.3584 20.2236 14.123 19.3154 13.5225 18.124L15.1973 17.1572C15.6367 17.875 16.2129 18.4072 17.2236 18.4072C18.0732 18.4072 18.6201 17.9824 18.6201 17.3916C18.6201 16.6885 18.0635 16.4395 17.1211 16.0244L16.6084 15.8047C15.124 15.1748 14.1426 14.3789 14.1426 12.7041C14.1426 11.1611 15.3193 9.98926 17.1504 9.98926C18.459 9.98926 19.3965 10.4434 20.0703 11.6348L18.4688 12.6602C18.1172 12.0303 17.7363 11.7812 17.1455 11.7812C16.5449 11.7812 16.1641 12.1621 16.1641 12.6602C16.1641 13.2754 16.5449 13.5244 17.4287 13.9102L17.9414 14.1299C19.6895 14.877 20.6709 15.6436 20.6709 17.3623C20.6709 19.208 19.2158 20.2236 17.2676 20.2236Z" fill="black"/>
</svg>
