<svg width="22" height="23" viewBox="0 0 22 23" fill="none" xmlns="http://www.w3.org/2000/svg">
<path d="M20.375 0.5625H1.62012C0.760742 0.5625 0.0625 1.27051 0.0625 2.13965V20.8604C0.0625 21.7295 0.760742 22.4375 1.62012 22.4375H20.375C21.2344 22.4375 21.9375 21.7295 21.9375 20.8604V2.13965C21.9375 1.27051 21.2344 0.5625 20.375 0.5625ZM6.67383 19.3125H3.43164V8.87305H6.67871V19.3125H6.67383ZM5.05273 7.44727C4.0127 7.44727 3.17285 6.60254 3.17285 5.56738C3.17285 4.53223 4.0127 3.6875 5.05273 3.6875C6.08789 3.6875 6.93262 4.53223 6.93262 5.56738C6.93262 6.60742 6.09277 7.44727 5.05273 7.44727ZM18.8271 19.3125H15.585V14.2344C15.585 13.0234 15.5605 11.4658 13.9004 11.4658C12.2109 11.4658 11.9521 12.7842 11.9521 14.1465V19.3125H8.70996V8.87305H11.8203V10.2988H11.8643C12.2988 9.47852 13.3584 8.61426 14.9355 8.61426C18.2168 8.61426 18.8271 10.7773 18.8271 13.5898V19.3125Z" fill="black"/>
</svg>