<svg width="30" height="30" viewBox="0 0 40 40" fill="none" xmlns="http://www.w3.org/2000/svg">
<path d="M8 5C7.20435 5 6.44129 5.315 5.87868 5.8757C5.31607 6.43641 5 7.19688 5 7.98983C5 8.78279 5.31607 9.54326 5.87868 10.104C6.44129 10.6647 7.20435 10.9797 8 10.9797H32C32.7956 10.9797 33.5587 10.6647 34.1213 10.104C34.6839 9.54326 35 8.78279 35 7.98983C35 7.19688 34.6839 6.43641 34.1213 5.8757C33.5587 5.315 32.7956 5 32 5H8ZM5 20C5 19.207 5.31607 18.4466 5.87868 17.8859C6.44129 17.3252 7.20435 17.0102 8 17.0102H32C32.7956 17.0102 33.5587 17.3252 34.1213 17.8859C34.6839 18.4466 35 19.207 35 20C35 20.793 34.6839 21.5534 34.1213 22.1141C33.5587 22.6748 32.7956 22.9898 32 22.9898H8C7.20435 22.9898 6.44129 22.6748 5.87868 22.1141C5.31607 21.5534 5 20.793 5 20ZM8 29.0203C7.20435 29.0203 6.44129 29.3353 5.87868 29.896C5.31607 30.4567 5 31.2172 5 32.0102C5 32.8031 5.31607 33.5636 5.87868 34.1243C6.44129 34.685 7.20435 35 8 35H32C32.7956 35 33.5587 34.685 34.1213 34.1243C34.6839 33.5636 35 32.8031 35 32.0102C35 31.2172 34.6839 30.4567 34.1213 29.896C33.5587 29.3353 32.7956 29.0203 32 29.0203H8Z" fill="black"/>
</svg>