<svg width="23" height="22" viewBox="0 0 23 22" fill="none" xmlns="http://www.w3.org/2000/svg">
<path d="M22.099 8.28982C21.723 6.78108 21.0101 5.64343 19.4916 5.64343H17.5337V7.9578C17.5337 9.75462 16.0103 11.2682 14.2721 11.2682H9.05738C7.63165 11.2682 6.45005 12.4889 6.45005 13.9195V18.89C6.45005 20.306 7.68047 21.1361 9.05738 21.5413C10.7077 22.0247 12.2946 22.1126 14.2721 21.5413C15.5855 21.1605 16.8794 20.3939 16.8794 18.89V16.9028H11.6696V16.2388H19.4916C21.0101 16.2388 21.5716 15.1792 22.099 13.5924C22.6458 11.9567 22.6214 10.3845 22.099 8.28982ZM14.5992 18.226C15.1412 18.226 15.5806 18.6703 15.5806 19.2172C15.5806 19.7689 15.1412 20.2132 14.5992 20.2132C14.0621 20.2132 13.6178 19.764 13.6178 19.2172C13.6227 18.6654 14.0621 18.226 14.5992 18.226ZM8.81813 10.614H14.0328C15.483 10.614 16.6402 9.41771 16.6402 7.96268V2.98727C16.6402 1.5713 15.4488 0.511766 14.0328 0.272517C12.2848 -0.0155593 10.3855 -0.000911219 8.81813 0.2774C6.61117 0.668011 6.2108 1.48341 6.2108 2.99215V4.97939H11.4304V5.64343H4.25285C2.73434 5.64343 1.40626 6.55648 0.991236 8.28982C0.512736 10.2771 0.493205 11.5173 0.991236 13.5924C1.36232 15.1353 2.24608 16.2388 3.76458 16.2388H5.55652V13.856C5.55652 12.1325 7.04573 10.614 8.81813 10.614ZM8.491 3.65131C7.94902 3.65131 7.50958 3.20699 7.50958 2.66013C7.51446 2.10839 7.94902 1.66407 8.491 1.66407C9.02809 1.66407 9.47241 2.11327 9.47241 2.66013C9.47241 3.20699 9.03297 3.65131 8.491 3.65131Z" fill="black"/>
</svg>