<svg width="23" height="22" viewBox="0 0 23 22" fill="none" xmlns="http://www.w3.org/2000/svg">
<mask id="path-1-inside-1_268_172" fill="white">
<path d="M18.3674 7.15135C18.3103 7.12958 18.2531 7.1081 18.1959 7.08692C17.9006 6.97751 17.7236 6.66986 17.7821 6.36038V6.36038C18.3076 3.45038 17.9615 1.11164 16.7952 0.340195C15.6715 -0.39707 13.8386 0.36949 11.9844 2.21509C11.9232 2.27522 11.8626 2.33643 11.8025 2.39836C11.61 2.5969 11.2893 2.59813 11.0957 2.40063V2.40063C9.15173 0.428081 7.20349 -0.401953 6.03711 0.374373C4.91772 1.11652 4.58447 3.31855 5.05444 6.07231V6.07231C5.13424 6.53655 4.86818 6.99335 4.43159 7.17019C4.427 7.17205 4.42242 7.17391 4.41785 7.17577C2.13635 8.07904 0.5 9.50474 0.5 10.9793C0.5 12.5026 2.24316 14.0309 4.61438 14.9586V14.9586C4.94195 15.0833 5.13715 15.4295 5.07331 15.7742C5.05656 15.8646 5.04035 15.9555 5.02454 16.0474C4.57593 18.7572 4.92627 20.9055 6.04565 21.6428C7.19922 22.4044 9.13892 21.6232 11.0273 19.7337V19.7337C11.2722 19.4858 11.6796 19.486 11.9249 19.7334C11.9689 19.7777 12.0129 19.8217 12.057 19.8655C13.8856 21.6623 15.6929 22.3898 16.808 21.6525C17.9615 20.8909 18.3375 18.5814 17.8505 15.7691C17.8362 15.6892 17.8213 15.6087 17.8058 15.5275C17.7605 15.2897 17.8968 15.0521 18.1239 14.9683V14.9683C20.5891 14.0358 22.375 12.527 22.375 10.9793C22.375 9.49986 20.6917 8.06439 18.3674 7.15135ZM12.5868 3.00607C14.1761 1.42412 15.6587 0.804037 16.3337 1.24835C17.0558 1.72196 17.3335 3.63592 16.8806 6.15043V6.15043C16.8321 6.41976 16.5651 6.58213 16.2985 6.52037C15.8207 6.40969 15.34 6.31663 14.8575 6.24241C14.2607 6.15062 13.7259 5.81601 13.3921 5.31293C13.1167 4.89799 12.83 4.49263 12.532 4.09839C12.2815 3.767 12.293 3.29981 12.5868 3.00607V3.00607ZM7.64355 13.5133C7.65878 13.543 7.67403 13.5727 7.68931 13.6024C7.94143 14.0924 7.53822 14.6715 6.99832 14.561V14.561C6.63494 14.4866 6.4141 14.1172 6.52101 13.762C6.53954 13.7005 6.55839 13.6388 6.57757 13.5769C6.73154 13.0802 7.40776 13.0498 7.64355 13.5133V13.5133ZM6.53023 8.27065C6.42615 7.92528 6.62131 7.56914 6.97404 7.49368V7.49368C7.50303 7.3805 7.91946 7.94141 7.67645 8.42471C7.66402 8.44944 7.65163 8.47418 7.63928 8.49894V8.49894C7.40753 8.95837 6.73249 8.92768 6.58067 8.43601C6.56361 8.38076 6.5468 8.32564 6.53023 8.27065ZM8.43823 12.986C7.80731 11.7406 7.80958 10.2701 8.43396 9.02137V9.02137C8.46435 8.9606 8.49496 8.90001 8.52578 8.83957C9.08553 7.74225 10.2057 7.03906 11.4375 7.03906V7.03906V7.03906C12.6692 7.03906 13.7827 7.74602 14.3486 8.84C14.3781 8.89709 14.4075 8.95429 14.4368 9.01161V9.01161C15.0695 10.2512 15.0663 11.7328 14.441 12.9762V12.9762C14.4119 13.0346 14.3825 13.0927 14.353 13.1507C13.7929 14.2522 12.6732 14.9586 11.4375 14.9586V14.9586V14.9586C10.2156 14.9586 9.10107 14.2728 8.54093 13.1869C8.50647 13.1201 8.47224 13.0531 8.43823 12.986V12.986ZM15.2357 13.5036V13.5036C15.4794 13.023 16.1759 13.0495 16.3401 13.5627C16.3551 13.6098 16.3701 13.6569 16.3849 13.7041C16.4976 14.0638 16.2778 14.4426 15.9093 14.5222V14.5222C15.3639 14.6398 14.9542 14.0559 15.2076 13.5587C15.217 13.5403 15.2264 13.5219 15.2357 13.5036ZM16.3129 8.42438C16.1557 8.93021 15.4716 8.9613 15.2314 8.48917V8.48917C15.2225 8.47137 15.2135 8.45357 15.2044 8.43577C14.9573 7.94806 15.3772 7.38119 15.9112 7.49851V7.49851C16.2687 7.57705 16.4614 7.93777 16.3549 8.28794C16.341 8.33349 16.3271 8.37897 16.3129 8.42438ZM10.936 4.93446C11.1921 4.5914 11.7007 4.59093 11.9555 4.9349C11.9678 4.95151 11.9801 4.96814 11.9924 4.98479C12.3043 5.40839 11.9742 5.99071 11.4482 5.99053V5.99053C10.9189 5.99035 10.5892 5.40116 10.9048 4.97634C10.9152 4.96235 10.9256 4.94839 10.936 4.93446ZM6.48999 1.28253C7.20776 0.804037 8.80139 1.48759 10.4805 3.18672V3.18672C10.6706 3.37798 10.6775 3.68468 10.5118 3.89752C10.1534 4.358 9.81067 4.83431 9.48371 5.32393C9.15217 5.82044 8.62297 6.15049 8.03262 6.23953C7.63783 6.29907 7.24448 6.37073 6.85257 6.45416C6.43926 6.54216 6.02858 6.28765 5.95166 5.87213V5.87213C5.55005 3.50897 5.81494 1.72684 6.48999 1.28253ZM5.59741 13.6114C5.51067 13.9054 5.199 14.0739 4.91345 13.9625V13.9625C4.00342 13.6354 2.96948 13.1178 2.2218 12.4392C1.79028 12.0974 1.49976 11.5701 1.41858 10.9793C1.41858 10.0858 2.76868 8.94325 4.71692 8.16692V8.16692C5.11336 8.00796 5.55021 8.24529 5.67439 8.65397C5.82869 9.16177 5.99676 9.66417 6.17811 10.1595C6.37763 10.7045 6.37815 11.3031 6.17889 11.8482C5.96716 12.4274 5.77309 13.016 5.59741 13.6114ZM10.4249 18.9378C9.71997 19.6751 8.90393 20.261 8.01526 20.6614C7.73603 20.8137 7.43161 20.8849 7.12905 20.8727C6.70126 20.8556 6.29677 20.6143 6.10889 20.2296C5.73406 19.4621 5.6331 18.0254 5.9303 16.2329V16.2329C6.00753 15.7836 6.4521 15.5085 6.89912 15.598C7.2724 15.6728 7.64714 15.7363 8.0236 15.7883C8.62921 15.872 9.1749 16.2054 9.51573 16.7129C9.81941 17.1652 10.1365 17.6061 10.4653 18.0339C10.675 18.3067 10.6683 18.6945 10.4249 18.9378V18.9378ZM11.9869 17.0742C11.7295 17.4268 11.2105 17.4296 10.9495 17.0796C10.9328 17.0572 10.9161 17.0348 10.8995 17.0122C10.588 16.5913 10.9138 16.0083 11.4375 16.0083V16.0083V16.0083C11.9808 16.0083 12.3252 16.6091 12.0056 17.0484C11.9994 17.057 11.9931 17.0656 11.9869 17.0742ZM17.0558 19.2161C17.0318 19.5884 16.9226 19.9454 16.744 20.2526C16.5326 20.6163 16.1671 20.9058 15.7467 20.8905C14.9782 20.8625 13.8524 20.2442 12.6594 19.0745V19.0745C12.339 18.7607 12.3248 18.2536 12.5915 17.8931C12.8743 17.5108 13.1465 17.119 13.4077 16.7179C13.7399 16.2078 14.2789 15.8685 14.8811 15.7795C15.3372 15.7121 15.7917 15.6276 16.2439 15.526C16.5666 15.4534 16.892 15.6532 16.949 15.979V15.979C17.1583 17.0336 17.1925 18.1322 17.0558 19.2161ZM17.8334 13.9674V13.9674C17.6358 14.04 17.4233 13.9265 17.3633 13.7247C17.1731 13.0849 16.9584 12.4542 16.7222 11.8337C16.5126 11.2832 16.5111 10.6747 16.7154 10.1222C16.9052 9.60914 17.0791 9.08888 17.2383 8.56209C17.3455 8.2074 17.7221 8.00573 18.0684 8.13763V8.13763C20.0593 8.91884 21.4564 10.0809 21.4564 10.9695C21.4564 11.9265 19.9653 13.1618 17.8334 13.9674ZM11.4375 13.235C12.5184 13.235 13.3943 12.2341 13.3943 10.9988C13.3943 9.76352 12.5184 8.7626 11.4375 8.7626C10.3566 8.7626 9.48071 9.76352 9.48071 10.9988C9.48071 12.2341 10.3566 13.235 11.4375 13.235Z"/>
</mask>
<path d="M18.3674 7.15135C18.3103 7.12958 18.2531 7.1081 18.1959 7.08692C17.9006 6.97751 17.7236 6.66986 17.7821 6.36038V6.36038C18.3076 3.45038 17.9615 1.11164 16.7952 0.340195C15.6715 -0.39707 13.8386 0.36949 11.9844 2.21509C11.9232 2.27522 11.8626 2.33643 11.8025 2.39836C11.61 2.5969 11.2893 2.59813 11.0957 2.40063V2.40063C9.15173 0.428081 7.20349 -0.401953 6.03711 0.374373C4.91772 1.11652 4.58447 3.31855 5.05444 6.07231V6.07231C5.13424 6.53655 4.86818 6.99335 4.43159 7.17019C4.427 7.17205 4.42242 7.17391 4.41785 7.17577C2.13635 8.07904 0.5 9.50474 0.5 10.9793C0.5 12.5026 2.24316 14.0309 4.61438 14.9586V14.9586C4.94195 15.0833 5.13715 15.4295 5.07331 15.7742C5.05656 15.8646 5.04035 15.9555 5.02454 16.0474C4.57593 18.7572 4.92627 20.9055 6.04565 21.6428C7.19922 22.4044 9.13892 21.6232 11.0273 19.7337V19.7337C11.2722 19.4858 11.6796 19.486 11.9249 19.7334C11.9689 19.7777 12.0129 19.8217 12.057 19.8655C13.8856 21.6623 15.6929 22.3898 16.808 21.6525C17.9615 20.8909 18.3375 18.5814 17.8505 15.7691C17.8362 15.6892 17.8213 15.6087 17.8058 15.5275C17.7605 15.2897 17.8968 15.0521 18.1239 14.9683V14.9683C20.5891 14.0358 22.375 12.527 22.375 10.9793C22.375 9.49986 20.6917 8.06439 18.3674 7.15135ZM12.5868 3.00607C14.1761 1.42412 15.6587 0.804037 16.3337 1.24835C17.0558 1.72196 17.3335 3.63592 16.8806 6.15043V6.15043C16.8321 6.41976 16.5651 6.58213 16.2985 6.52037C15.8207 6.40969 15.34 6.31663 14.8575 6.24241C14.2607 6.15062 13.7259 5.81601 13.3921 5.31293C13.1167 4.89799 12.83 4.49263 12.532 4.09839C12.2815 3.767 12.293 3.29981 12.5868 3.00607V3.00607ZM7.64355 13.5133C7.65878 13.543 7.67403 13.5727 7.68931 13.6024C7.94143 14.0924 7.53822 14.6715 6.99832 14.561V14.561C6.63494 14.4866 6.4141 14.1172 6.52101 13.762C6.53954 13.7005 6.55839 13.6388 6.57757 13.5769C6.73154 13.0802 7.40776 13.0498 7.64355 13.5133V13.5133ZM6.53023 8.27065C6.42615 7.92528 6.62131 7.56914 6.97404 7.49368V7.49368C7.50303 7.3805 7.91946 7.94141 7.67645 8.42471C7.66402 8.44944 7.65163 8.47418 7.63928 8.49894V8.49894C7.40753 8.95837 6.73249 8.92768 6.58067 8.43601C6.56361 8.38076 6.5468 8.32564 6.53023 8.27065ZM8.43823 12.986C7.80731 11.7406 7.80958 10.2701 8.43396 9.02137V9.02137C8.46435 8.9606 8.49496 8.90001 8.52578 8.83957C9.08553 7.74225 10.2057 7.03906 11.4375 7.03906V7.03906V7.03906C12.6692 7.03906 13.7827 7.74602 14.3486 8.84C14.3781 8.89709 14.4075 8.95429 14.4368 9.01161V9.01161C15.0695 10.2512 15.0663 11.7328 14.441 12.9762V12.9762C14.4119 13.0346 14.3825 13.0927 14.353 13.1507C13.7929 14.2522 12.6732 14.9586 11.4375 14.9586V14.9586V14.9586C10.2156 14.9586 9.10107 14.2728 8.54093 13.1869C8.50647 13.1201 8.47224 13.0531 8.43823 12.986V12.986ZM15.2357 13.5036V13.5036C15.4794 13.023 16.1759 13.0495 16.3401 13.5627C16.3551 13.6098 16.3701 13.6569 16.3849 13.7041C16.4976 14.0638 16.2778 14.4426 15.9093 14.5222V14.5222C15.3639 14.6398 14.9542 14.0559 15.2076 13.5587C15.217 13.5403 15.2264 13.5219 15.2357 13.5036ZM16.3129 8.42438C16.1557 8.93021 15.4716 8.9613 15.2314 8.48917V8.48917C15.2225 8.47137 15.2135 8.45357 15.2044 8.43577C14.9573 7.94806 15.3772 7.38119 15.9112 7.49851V7.49851C16.2687 7.57705 16.4614 7.93777 16.3549 8.28794C16.341 8.33349 16.3271 8.37897 16.3129 8.42438ZM10.936 4.93446C11.1921 4.5914 11.7007 4.59093 11.9555 4.9349C11.9678 4.95151 11.9801 4.96814 11.9924 4.98479C12.3043 5.40839 11.9742 5.99071 11.4482 5.99053V5.99053C10.9189 5.99035 10.5892 5.40116 10.9048 4.97634C10.9152 4.96235 10.9256 4.94839 10.936 4.93446ZM6.48999 1.28253C7.20776 0.804037 8.80139 1.48759 10.4805 3.18672V3.18672C10.6706 3.37798 10.6775 3.68468 10.5118 3.89752C10.1534 4.358 9.81067 4.83431 9.48371 5.32393C9.15217 5.82044 8.62297 6.15049 8.03262 6.23953C7.63783 6.29907 7.24448 6.37073 6.85257 6.45416C6.43926 6.54216 6.02858 6.28765 5.95166 5.87213V5.87213C5.55005 3.50897 5.81494 1.72684 6.48999 1.28253ZM5.59741 13.6114C5.51067 13.9054 5.199 14.0739 4.91345 13.9625V13.9625C4.00342 13.6354 2.96948 13.1178 2.2218 12.4392C1.79028 12.0974 1.49976 11.5701 1.41858 10.9793C1.41858 10.0858 2.76868 8.94325 4.71692 8.16692V8.16692C5.11336 8.00796 5.55021 8.24529 5.67439 8.65397C5.82869 9.16177 5.99676 9.66417 6.17811 10.1595C6.37763 10.7045 6.37815 11.3031 6.17889 11.8482C5.96716 12.4274 5.77309 13.016 5.59741 13.6114ZM10.4249 18.9378C9.71997 19.6751 8.90393 20.261 8.01526 20.6614C7.73603 20.8137 7.43161 20.8849 7.12905 20.8727C6.70126 20.8556 6.29677 20.6143 6.10889 20.2296C5.73406 19.4621 5.6331 18.0254 5.9303 16.2329V16.2329C6.00753 15.7836 6.4521 15.5085 6.89912 15.598C7.2724 15.6728 7.64714 15.7363 8.0236 15.7883C8.62921 15.872 9.1749 16.2054 9.51573 16.7129C9.81941 17.1652 10.1365 17.6061 10.4653 18.0339C10.675 18.3067 10.6683 18.6945 10.4249 18.9378V18.9378ZM11.9869 17.0742C11.7295 17.4268 11.2105 17.4296 10.9495 17.0796C10.9328 17.0572 10.9161 17.0348 10.8995 17.0122C10.588 16.5913 10.9138 16.0083 11.4375 16.0083V16.0083V16.0083C11.9808 16.0083 12.3252 16.6091 12.0056 17.0484C11.9994 17.057 11.9931 17.0656 11.9869 17.0742ZM17.0558 19.2161C17.0318 19.5884 16.9226 19.9454 16.744 20.2526C16.5326 20.6163 16.1671 20.9058 15.7467 20.8905C14.9782 20.8625 13.8524 20.2442 12.6594 19.0745V19.0745C12.339 18.7607 12.3248 18.2536 12.5915 17.8931C12.8743 17.5108 13.1465 17.119 13.4077 16.7179C13.7399 16.2078 14.2789 15.8685 14.8811 15.7795C15.3372 15.7121 15.7917 15.6276 16.2439 15.526C16.5666 15.4534 16.892 15.6532 16.949 15.979V15.979C17.1583 17.0336 17.1925 18.1322 17.0558 19.2161ZM17.8334 13.9674V13.9674C17.6358 14.04 17.4233 13.9265 17.3633 13.7247C17.1731 13.0849 16.9584 12.4542 16.7222 11.8337C16.5126 11.2832 16.5111 10.6747 16.7154 10.1222C16.9052 9.60914 17.0791 9.08888 17.2383 8.56209C17.3455 8.2074 17.7221 8.00573 18.0684 8.13763V8.13763C20.0593 8.91884 21.4564 10.0809 21.4564 10.9695C21.4564 11.9265 19.9653 13.1618 17.8334 13.9674ZM11.4375 13.235C12.5184 13.235 13.3943 12.2341 13.3943 10.9988C13.3943 9.76352 12.5184 8.7626 11.4375 8.7626C10.3566 8.7626 9.48071 9.76352 9.48071 10.9988C9.48071 12.2341 10.3566 13.235 11.4375 13.235Z" stroke="black" stroke-width="2" mask="url(#path-1-inside-1_268_172)"/>
</svg>